<svg xmlns="http://www.w3.org/2000/svg" viewBox="0 0 1440 900" preserveAspectRatio="xMidYMid slice">
  <defs>
    <radialGradient id="g1" cx="20%" cy="30%" r="50%">
      <stop offset="0%" stop-color="#1e3a5f" stop-opacity="0.4"/>
      <stop offset="100%" stop-color="#0f172a" stop-opacity="0"/>
    </radialGradient>
    <radialGradient id="g2" cx="80%" cy="70%" r="50%">
      <stop offset="0%" stop-color="#1e40af" stop-opacity="0.15"/>
      <stop offset="100%" stop-color="#0f172a" stop-opacity="0"/>
    </radialGradient>
    <radialGradient id="g3" cx="50%" cy="50%" r="40%">
      <stop offset="0%" stop-color="#0ea5e9" stop-opacity="0.05"/>
      <stop offset="100%" stop-color="#0f172a" stop-opacity="0"/>
    </radialGradient>
  </defs>
  <rect width="1440" height="900" fill="#0f172a"/>
  <rect width="1440" height="900" fill="url(#g1)"/>
  <rect width="1440" height="900" fill="url(#g2)"/>
  <rect width="1440" height="900" fill="url(#g3)"/>
  <g opacity="0.03" stroke="#60a5fa" stroke-width="1" fill="none">
    <line x1="0" y1="150" x2="1440" y2="150"/>
    <line x1="0" y1="300" x2="1440" y2="300"/>
    <line x1="0" y1="450" x2="1440" y2="450"/>
    <line x1="0" y1="600" x2="1440" y2="600"/>
    <line x1="0" y1="750" x2="1440" y2="750"/>
    <line x1="240" y1="0" x2="240" y2="900"/>
    <line x1="480" y1="0" x2="480" y2="900"/>
    <line x1="720" y1="0" x2="720" y2="900"/>
    <line x1="960" y1="0" x2="960" y2="900"/>
    <line x1="1200" y1="0" x2="1200" y2="900"/>
  </g>
  <g opacity="0.04" fill="#60a5fa">
    <circle cx="200" cy="200" r="2"/>
    <circle cx="500" cy="350" r="1.5"/>
    <circle cx="800" cy="150" r="2"/>
    <circle cx="1100" cy="400" r="1.5"/>
    <circle cx="300" cy="600" r="2"/>
    <circle cx="700" cy="700" r="1.5"/>
    <circle cx="1000" cy="550" r="2"/>
    <circle cx="1300" cy="250" r="1.5"/>
  </g>
</svg>
